<svg xmlns="http://www.w3.org/2000/svg" version="1.1" xmlns:xlink="http://www.w3.org/1999/xlink" width="1000" height="1000"><style>
    #light-icon {
      display: inline;
    }
    #dark-icon {
      display: none;
    }

    @media (prefers-color-scheme: dark) {
      #light-icon {
        display: none;
      }
      #dark-icon {
        display: inline;
      }
    }
  </style><g id="light-icon"><svg xmlns="http://www.w3.org/2000/svg" version="1.1" xmlns:xlink="http://www.w3.org/1999/xlink" width="1000" height="1000"><g><g transform="matrix(3.90625,0,0,3.90625,0,0)"><svg xmlns="http://www.w3.org/2000/svg" version="1.1" xmlns:xlink="http://www.w3.org/1999/xlink" width="256" height="256"><svg width="256" height="256" viewBox="0 0 256 256" fill="none" xmlns="http://www.w3.org/2000/svg">
<g clip-path="url(#clip0_2487_100)">
<rect x="11" y="32" width="234" height="213" rx="40" fill="white" stroke="black" stroke-width="16"></rect>
<path d="M3 72C3 45.4903 24.4903 24 51 24H205C231.51 24 253 45.4903 253 72V88H3V72Z" fill="#BB0000"></path>
<rect x="11" y="32" width="234" height="213" rx="40" stroke="black" stroke-width="16"></rect>
<path d="M54.3144 218.52C52.6077 218.733 51.4877 218.413 50.9544 217.56C50.421 216.6 50.1544 215.16 50.1544 213.24C50.1544 210.893 50.2077 208.76 50.3144 206.84L50.4744 193.4L50.7944 174.52C51.4344 151.907 51.7544 134.253 51.7544 121.56C51.7544 117.72 51.701 115.427 51.5944 114.68C51.381 112.333 51.2744 110.947 51.2744 110.52C51.2744 107.747 51.861 106.36 53.0344 106.36C53.5677 106.36 54.6344 106.413 56.2344 106.52C57.941 106.627 60.2877 106.68 63.2744 106.68C64.1277 106.68 66.3144 106.627 69.8344 106.52C73.3544 106.413 77.0344 106.36 80.8744 106.36C86.5277 106.36 91.9144 106.52 97.0344 106.84C104.394 107.267 110.474 110.253 115.274 115.8C120.181 121.347 122.634 129.667 122.634 140.76C122.634 148.013 121.088 153.773 117.994 158.04C114.901 162.307 111.328 165.293 107.274 167C103.221 168.6 99.6477 169.4 96.5544 169.4C93.6744 169.4 88.821 169.72 81.9944 170.36C78.0477 170.787 74.8477 171.053 72.3944 171.16C72.181 180.973 72.0744 187.64 72.0744 191.16C72.0744 205.027 72.2344 212.547 72.5544 213.72C72.7677 214.787 72.5544 215.747 71.9144 216.6C71.381 217.347 70.6344 217.88 69.6744 218.2C68.821 218.413 68.021 218.36 67.2744 218.04C66.9544 217.933 66.0477 217.88 64.5544 217.88C61.3544 217.88 57.941 218.093 54.3144 218.52ZM92.0744 157.88C96.021 157.88 99.701 156.707 103.114 154.36C106.528 152.013 108.234 147.8 108.234 141.72C108.234 135.213 106.901 130.307 104.234 127C101.568 123.587 97.6744 121.4 92.5544 120.44C84.5544 118.84 78.261 118.2 73.6744 118.52C73.6744 121.507 73.621 123.747 73.5144 125.24C73.301 131.213 73.0344 135.48 72.7144 138.04C72.2877 141.773 72.181 145.987 72.3944 150.68L72.7144 156.92L80.2344 157.4C83.1144 157.72 87.061 157.88 92.0744 157.88ZM136.799 218.84C135.626 218.84 134.879 218.573 134.559 218.04C134.239 217.507 134.239 216.92 134.559 216.28C134.666 215.96 134.719 215.533 134.719 215C134.719 214.573 134.666 214.04 134.559 213.4C134.559 212.653 134.559 211.64 134.559 210.36C134.559 206.84 134.506 203.373 134.399 199.96L134.079 171L134.239 138.84C134.239 136.067 134.186 133.4 134.079 130.84C133.973 128.173 133.866 125.88 133.759 123.96L133.439 113.88C133.546 111.427 133.706 109.72 133.919 108.76C134.133 107.8 134.559 107.32 135.199 107.32H135.679C136.106 107.32 136.586 107.427 137.119 107.64C137.653 107.747 138.133 107.8 138.559 107.8C139.413 107.8 140.426 107.747 141.599 107.64C142.879 107.533 144.159 107.48 145.439 107.48L151.679 107.64C157.653 107.64 163.039 107.907 167.839 108.44C168.266 108.44 169.653 108.547 171.999 108.76C174.453 108.973 177.546 110.093 181.279 112.12C185.119 114.147 189.173 117.027 193.439 120.76C199.733 126.307 203.893 132.92 205.919 140.6C207.946 148.173 208.959 156.547 208.959 165.72C208.959 170.52 208.159 175.907 206.559 181.88C204.959 187.853 202.719 193.4 199.839 198.52C197.066 203.64 193.813 207.427 190.079 209.88C184.959 213.187 178.613 215.533 171.039 216.92C163.466 218.2 157.493 218.84 153.119 218.84H136.799ZM160.959 212.76C168.319 213.187 175.039 211.853 181.119 208.76C186.986 205.773 191.839 200.813 195.679 193.88C199.519 186.947 201.439 177.56 201.439 165.72C201.439 153.987 199.519 144.6 195.679 137.56C191.946 130.413 187.199 125.08 181.439 121.56C175.573 118.04 168.906 116.227 161.439 116.12L160.799 130.68C160.479 135.907 160.319 143.107 160.319 152.28C160.319 153.133 160.479 157.88 160.799 166.52C161.119 170.147 161.279 173.56 161.279 176.76L161.119 197.4C161.013 200.6 160.959 205.72 160.959 212.76Z" fill="black"></path>
<path d="M67 57H69C74.5228 57 79 52.5228 79 47V19C79 13.4772 74.5228 9 69 9H65C59.4772 9 55 13.4772 55 19V33" stroke="black" stroke-width="12"></path>
<path d="M189 57H191C196.523 57 201 52.5228 201 47V19C201 13.4772 196.523 9 191 9H187C181.477 9 177 13.4772 177 19V33" stroke="black" stroke-width="12"></path>
</g>
<defs>
<clipPath id="clip0_2487_100">
<rect width="256" height="256" fill="white"></rect>
</clipPath>
</defs>
</svg></svg></g></g></svg></g><g id="dark-icon"><svg xmlns="http://www.w3.org/2000/svg" version="1.1" xmlns:xlink="http://www.w3.org/1999/xlink" width="1000" height="1000"><g clip-path="url(#SvgjsClipPath1026)"><rect width="1000" height="1000" fill="#ffffff"></rect><g transform="matrix(2.734375,0,0,2.734375,150,150)"><svg xmlns="http://www.w3.org/2000/svg" version="1.1" xmlns:xlink="http://www.w3.org/1999/xlink" width="256" height="256"><svg width="256" height="256" viewBox="0 0 256 256" fill="none" xmlns="http://www.w3.org/2000/svg">
<g clip-path="url(#clip0_2487_100)">
<rect x="11" y="32" width="234" height="213" rx="40" fill="white" stroke="black" stroke-width="16"></rect>
<path d="M3 72C3 45.4903 24.4903 24 51 24H205C231.51 24 253 45.4903 253 72V88H3V72Z" fill="#BB0000"></path>
<rect x="11" y="32" width="234" height="213" rx="40" stroke="black" stroke-width="16"></rect>
<path d="M54.3144 218.52C52.6077 218.733 51.4877 218.413 50.9544 217.56C50.421 216.6 50.1544 215.16 50.1544 213.24C50.1544 210.893 50.2077 208.76 50.3144 206.84L50.4744 193.4L50.7944 174.52C51.4344 151.907 51.7544 134.253 51.7544 121.56C51.7544 117.72 51.701 115.427 51.5944 114.68C51.381 112.333 51.2744 110.947 51.2744 110.52C51.2744 107.747 51.861 106.36 53.0344 106.36C53.5677 106.36 54.6344 106.413 56.2344 106.52C57.941 106.627 60.2877 106.68 63.2744 106.68C64.1277 106.68 66.3144 106.627 69.8344 106.52C73.3544 106.413 77.0344 106.36 80.8744 106.36C86.5277 106.36 91.9144 106.52 97.0344 106.84C104.394 107.267 110.474 110.253 115.274 115.8C120.181 121.347 122.634 129.667 122.634 140.76C122.634 148.013 121.088 153.773 117.994 158.04C114.901 162.307 111.328 165.293 107.274 167C103.221 168.6 99.6477 169.4 96.5544 169.4C93.6744 169.4 88.821 169.72 81.9944 170.36C78.0477 170.787 74.8477 171.053 72.3944 171.16C72.181 180.973 72.0744 187.64 72.0744 191.16C72.0744 205.027 72.2344 212.547 72.5544 213.72C72.7677 214.787 72.5544 215.747 71.9144 216.6C71.381 217.347 70.6344 217.88 69.6744 218.2C68.821 218.413 68.021 218.36 67.2744 218.04C66.9544 217.933 66.0477 217.88 64.5544 217.88C61.3544 217.88 57.941 218.093 54.3144 218.52ZM92.0744 157.88C96.021 157.88 99.701 156.707 103.114 154.36C106.528 152.013 108.234 147.8 108.234 141.72C108.234 135.213 106.901 130.307 104.234 127C101.568 123.587 97.6744 121.4 92.5544 120.44C84.5544 118.84 78.261 118.2 73.6744 118.52C73.6744 121.507 73.621 123.747 73.5144 125.24C73.301 131.213 73.0344 135.48 72.7144 138.04C72.2877 141.773 72.181 145.987 72.3944 150.68L72.7144 156.92L80.2344 157.4C83.1144 157.72 87.061 157.88 92.0744 157.88ZM136.799 218.84C135.626 218.84 134.879 218.573 134.559 218.04C134.239 217.507 134.239 216.92 134.559 216.28C134.666 215.96 134.719 215.533 134.719 215C134.719 214.573 134.666 214.04 134.559 213.4C134.559 212.653 134.559 211.64 134.559 210.36C134.559 206.84 134.506 203.373 134.399 199.96L134.079 171L134.239 138.84C134.239 136.067 134.186 133.4 134.079 130.84C133.973 128.173 133.866 125.88 133.759 123.96L133.439 113.88C133.546 111.427 133.706 109.72 133.919 108.76C134.133 107.8 134.559 107.32 135.199 107.32H135.679C136.106 107.32 136.586 107.427 137.119 107.64C137.653 107.747 138.133 107.8 138.559 107.8C139.413 107.8 140.426 107.747 141.599 107.64C142.879 107.533 144.159 107.48 145.439 107.48L151.679 107.64C157.653 107.64 163.039 107.907 167.839 108.44C168.266 108.44 169.653 108.547 171.999 108.76C174.453 108.973 177.546 110.093 181.279 112.12C185.119 114.147 189.173 117.027 193.439 120.76C199.733 126.307 203.893 132.92 205.919 140.6C207.946 148.173 208.959 156.547 208.959 165.72C208.959 170.52 208.159 175.907 206.559 181.88C204.959 187.853 202.719 193.4 199.839 198.52C197.066 203.64 193.813 207.427 190.079 209.88C184.959 213.187 178.613 215.533 171.039 216.92C163.466 218.2 157.493 218.84 153.119 218.84H136.799ZM160.959 212.76C168.319 213.187 175.039 211.853 181.119 208.76C186.986 205.773 191.839 200.813 195.679 193.88C199.519 186.947 201.439 177.56 201.439 165.72C201.439 153.987 199.519 144.6 195.679 137.56C191.946 130.413 187.199 125.08 181.439 121.56C175.573 118.04 168.906 116.227 161.439 116.12L160.799 130.68C160.479 135.907 160.319 143.107 160.319 152.28C160.319 153.133 160.479 157.88 160.799 166.52C161.119 170.147 161.279 173.56 161.279 176.76L161.119 197.4C161.013 200.6 160.959 205.72 160.959 212.76Z" fill="black"></path>
<path d="M67 57H69C74.5228 57 79 52.5228 79 47V19C79 13.4772 74.5228 9 69 9H65C59.4772 9 55 13.4772 55 19V33" stroke="black" stroke-width="12"></path>
<path d="M189 57H191C196.523 57 201 52.5228 201 47V19C201 13.4772 196.523 9 191 9H187C181.477 9 177 13.4772 177 19V33" stroke="black" stroke-width="12"></path>
</g>
<defs>
<clipPath id="clip0_2487_100">
<rect width="256" height="256" fill="white"></rect>
</clipPath>
<clipPath id="SvgjsClipPath1026"><rect width="1000" height="1000" x="0" y="0" rx="350" ry="350"></rect></clipPath></defs>
</svg></svg></g></g></svg></g></svg>